<?xml version="1.0" encoding="UTF-8" standalone="no"?>
<svg
   id="Layer_1"
   viewBox="0 0 66.1 24.7"
   version="1.1"
   sodipodi:docname="scratch-logo.svg"
   inkscape:version="1.2.2 (732a01da63, 2022-12-09)"
   xmlns:inkscape="http://www.inkscape.org/namespaces/inkscape"
   xmlns:sodipodi="http://sodipodi.sourceforge.net/DTD/sodipodi-0.dtd"
   xmlns="http://www.w3.org/2000/svg"
   xmlns:svg="http://www.w3.org/2000/svg">
  <defs
     id="defs4627" />
  <sodipodi:namedview
     id="namedview4625"
     pagecolor="#ffffff"
     bordercolor="#000000"
     borderopacity="0.25"
     inkscape:showpageshadow="2"
     inkscape:pageopacity="0.0"
     inkscape:pagecheckerboard="0"
     inkscape:deskcolor="#d1d1d1"
     showgrid="false"
     inkscape:zoom="9.9092286"
     inkscape:cx="9.2842746"
     inkscape:cy="9.4356487"
     inkscape:window-width="1920"
     inkscape:window-height="1051"
     inkscape:window-x="-9"
     inkscape:window-y="-9"
     inkscape:window-maximized="1"
     inkscape:current-layer="Layer_1" />
  <style
     id="style4602">.st0{fill:#fff}.st1{fill:#f9a83a}</style>
  <g
     aria-label="bsmme"
     id="text282"
     style="font-size:14.2168px;font-family:'Xerox Sans Serif Wide';-inkscape-font-specification:'Xerox Sans Serif Wide';fill:#ffffff;stroke:#ffffff;stroke-width:6.91;stroke-linecap:round;stroke-linejoin:round;paint-order:stroke markers fill"
     inkscape:label="text282">
    <path
       d="M 6.3713693,10.264653 V 6.5967182 H 4.3810173 V 16.80438 h 1.9477016 v -0.938308 q 0.7108399,0.653972 1.4643303,0.895658 0.7677072,0.241686 1.7344496,0.241686 1.7060162,0 2.6727582,-1.137344 0.980959,-1.151561 0.980959,-3.042396 0,-1.691799 -0.966742,-2.729625 -0.966742,-1.0520432 -2.5732408,-1.0520432 -0.9667424,0 -1.8197504,0.2559024 -0.8387912,0.2559024 -1.4501135,0.9667428 z m -0.085301,2.88601 q 0,-1.194211 0.5971055,-1.791317 0.6113224,-0.597105 1.919268,-0.597105 1.0520432,0 1.691799,0.597105 0.653973,0.597106 0.653973,1.563848 0,1.137344 -0.611322,1.791317 -0.597106,0.653973 -1.7486668,0.653973 -1.1231272,0 -1.8197504,-0.582889 -0.6824063,-0.582889 -0.6824063,-1.634932 z"
       id="path1042" />
    <path
       d="m 22.621169,14.487042 q 0,-1.009393 -0.838791,-1.549631 -0.824575,-0.540239 -2.658542,-0.810358 -1.549631,-0.199035 -2.061436,-0.35542 -0.511805,-0.156384 -0.511805,-0.526021 0,-0.35542 0.426504,-0.526022 0.440721,-0.170601 1.364813,-0.170601 1.009393,0 1.521198,0.270119 0.526021,0.270119 0.526021,0.725057 H 22.35105 Q 22.166231,10.079834 20.92937,9.5680294 19.692508,9.0420078 18.08601,9.0420078 q -1.535415,0 -2.516374,0.6539727 -0.980959,0.6539725 -0.980959,1.8908345 0,0.966742 0.853008,1.450113 0.867225,0.469155 1.7771,0.639756 1.691799,0.241686 2.544807,0.426504 0.867225,0.184819 0.867225,0.66819 0,0.31277 -0.568672,0.526022 -0.568672,0.199035 -1.336379,0.199035 -1.080477,0 -1.73445,-0.255903 -0.639756,-0.255902 -0.668189,-0.853008 h -2.04722 q 0.156385,1.563848 1.592282,2.104087 1.435897,0.526021 3.085046,0.526021 1.634932,0 2.644324,-0.696623 1.02361,-0.696623 1.02361,-1.833967 z"
       id="path1044" />
    <path
       d="m 37.335554,16.80438 v -5.231782 q 0,-1.165777 -0.79614,-1.8481839 -0.781924,-0.6824063 -2.104087,-0.6824063 -1.023609,0 -1.677582,0.3269864 -0.653973,0.3127695 -1.165778,0.8814418 -0.298553,-0.5686723 -0.824574,-0.8814418 -0.511805,-0.3269864 -1.549631,-0.3269864 -0.867225,0 -1.649149,0.284336 -0.767707,0.284336 -1.322162,1.0378262 V 9.241043 h -1.905052 v 7.563337 h 1.990352 v -4.577809 q 0,-0.739274 0.454938,-1.123127 0.454937,-0.383854 1.379029,-0.383854 0.924092,0 1.293729,0.341203 0.369637,0.326987 0.369637,1.052044 v 4.691543 h 2.004569 v -4.492508 q 0,-0.739274 0.440721,-1.165778 0.44072,-0.426504 1.251078,-0.426504 0.966742,0 1.393246,0.341203 0.426504,0.326987 0.426504,1.052044 v 4.691543 z"
       id="path1046" />
    <path
       d="m 52.50487,16.80438 v -5.231782 q 0,-1.165777 -0.796141,-1.8481839 -0.781924,-0.6824063 -2.104086,-0.6824063 -1.02361,0 -1.677583,0.3269864 Q 47.273087,9.6817637 46.761283,10.250436 46.46273,9.6817637 45.936708,9.3689942 45.424903,9.0420078 44.387077,9.0420078 q -0.867225,0 -1.649149,0.284336 -0.767707,0.284336 -1.322162,1.0378262 V 9.241043 h -1.905051 v 7.563337 h 1.990352 v -4.577809 q 0,-0.739274 0.454937,-1.123127 0.454938,-0.383854 1.37903,-0.383854 0.924092,0 1.293729,0.341203 0.369636,0.326987 0.369636,1.052044 v 4.691543 h 2.004569 v -4.492508 q 0,-0.739274 0.440721,-1.165778 0.440721,-0.426504 1.251078,-0.426504 0.966743,0 1.393247,0.341203 0.426504,0.326987 0.426504,1.052044 v 4.691543 z"
       id="path1048" />
    <path
       d="m 62.485057,14.58656 h -2.047219 q -0.113735,0.341203 -0.653973,0.582888 -0.526022,0.227469 -1.293729,0.227469 -1.364813,0 -1.961918,-0.582889 -0.412287,-0.412287 -0.554455,-1.251078 h 6.625028 l 0.02843,-0.326986 q 0,-1.919268 -1.137344,-3.056612 -1.123127,-1.1373442 -3.127696,-1.1373442 -2.118303,0 -3.255647,1.0520432 -1.123127,1.037826 -1.123127,2.942877 0,1.862401 1.123127,2.914444 1.137344,1.052044 3.184563,1.052044 1.578065,0 2.672758,-0.597106 1.094694,-0.611322 1.521198,-1.81975 z m -6.468644,-2.317339 q 0.184818,-0.597105 0.511805,-0.952525 0.582889,-0.639756 1.677582,-0.639756 1.037827,0 1.634932,0.426504 0.597106,0.426504 0.71084,1.165777 z"
       id="path1050" />
  </g>
  <g
     aria-label="bsmme"
     id="text4841"
     style="font-size:14.2524px;font-family:'Xerox Sans Serif Wide';-inkscape-font-specification:'Xerox Sans Serif Wide';fill:#f56c42;stroke:#ffffff;stroke-width:3.91941;stroke-linecap:round;stroke-linejoin:round;paint-order:stroke markers fill">
    <path
       d="M 6.4264373,10.341019 V 6.6638999 H 4.4311013 V 16.897123 h 1.9525788 v -0.940658 q 0.71262,0.65561 1.4679972,0.897901 0.7696297,0.242291 1.7387929,0.242291 1.7102878,0 2.6794508,-1.140192 0.983416,-1.154445 0.983416,-3.050014 0,-1.696035 -0.969163,-2.736461 -0.969163,-1.0546773 -2.5796846,-1.0546773 -0.9691632,0 -1.8243073,0.2565432 -0.8408916,0.2565432 -1.4537448,0.9691631 z m -0.085514,2.893237 q 0,-1.197201 0.5986008,-1.795802 0.6128532,-0.598601 1.9240741,-0.598601 1.0546776,0 1.6960352,0.598601 0.655611,0.598601 0.655611,1.567764 0,1.140192 -0.612853,1.795802 -0.598601,0.655611 -1.7530456,0.655611 -1.1259397,0 -1.8243073,-0.584349 -0.6841152,-0.584348 -0.6841152,-1.639026 z"
       id="path4766" />
    <path
       d="m 22.716928,14.573982 q 0,-1.01192 -0.840892,-1.553512 -0.826639,-0.541591 -2.665199,-0.812386 -1.553511,-0.199534 -2.066598,-0.35631 -0.513086,-0.156777 -0.513086,-0.527339 0,-0.35631 0.427572,-0.527339 0.441824,-0.171029 1.36823,-0.171029 1.011921,0 1.525007,0.270796 0.527339,0.270795 0.527339,0.726872 h 1.966831 q -0.185281,-1.467997 -1.42524,-1.9810835 -1.239959,-0.5273388 -2.85048,-0.5273388 -1.539259,0 -2.522675,0.6556104 -0.983416,0.6556109 -0.983416,1.8955689 0,0.969164 0.855144,1.453745 0.869397,0.470329 1.781551,0.641358 1.696035,0.242291 2.551179,0.427572 0.869397,0.185281 0.869397,0.669863 0,0.313553 -0.570096,0.527339 -0.570096,0.199534 -1.339726,0.199534 -1.083182,0 -1.738793,-0.256544 -0.641358,-0.256543 -0.669863,-0.855144 h -2.052345 q 0.156776,1.567764 1.596269,2.109356 1.439492,0.527338 3.09277,0.527338 1.639026,0 2.650947,-0.698367 1.026173,-0.698368 1.026173,-1.83856 z"
       id="path4768" />
    <path
       d="M 37.468159,16.897123 V 11.65224 q 0,-1.168697 -0.798135,-1.8528121 -0.783882,-0.6841152 -2.109355,-0.6841152 -1.026173,0 -1.681783,0.3278052 -0.655611,0.3135528 -1.168697,0.8836491 -0.2993,-0.5700963 -0.826639,-0.8836491 -0.513087,-0.3278052 -1.553512,-0.3278052 -0.869396,0 -1.653278,0.285048 -0.76963,0.285048 -1.325474,1.0404253 V 9.3148463 h -1.909821 v 7.5822767 h 1.995336 V 12.30785 q 0,-0.741124 0.456077,-1.125939 0.456076,-0.384815 1.382482,-0.384815 0.926406,0 1.296969,0.342058 0.370562,0.327805 0.370562,1.054677 v 4.703292 h 2.009589 v -4.503758 q 0,-0.741125 0.441824,-1.168697 0.441825,-0.427572 1.254211,-0.427572 0.969164,0 1.396736,0.342058 0.427572,0.327805 0.427572,1.054677 v 4.703292 z"
       id="path4770" />
    <path
       d="M 52.675465,16.897123 V 11.65224 q 0,-1.168697 -0.798135,-1.8528121 -0.783882,-0.6841152 -2.109355,-0.6841152 -1.026173,0 -1.681783,0.3278052 -0.655611,0.3135528 -1.168697,0.8836491 -0.299301,-0.5700963 -0.826639,-0.8836491 -0.513087,-0.3278052 -1.553512,-0.3278052 -0.869396,0 -1.653278,0.285048 -0.76963,0.285048 -1.325474,1.0404253 V 9.3148463 h -1.909821 v 7.5822767 h 1.995336 V 12.30785 q 0,-0.741124 0.456077,-1.125939 0.456076,-0.384815 1.382482,-0.384815 0.926406,0 1.296969,0.342058 0.370562,0.327805 0.370562,1.054677 v 4.703292 h 2.009589 v -4.503758 q 0,-0.741125 0.441824,-1.168697 0.441824,-0.427572 1.254211,-0.427572 0.969164,0 1.396736,0.342058 0.427572,0.327805 0.427572,1.054677 v 4.703292 z"
       id="path4772" />
    <path
       d="m 62.680641,14.673749 h -2.052346 q -0.114019,0.342057 -0.655611,0.584348 -0.527338,0.228039 -1.296968,0.228039 -1.36823,0 -1.966831,-0.584349 -0.41332,-0.413319 -0.555844,-1.254211 h 6.641619 l 0.02851,-0.327805 q 0,-1.924074 -1.140192,-3.064266 -1.12594,-1.1401923 -3.135529,-1.1401923 -2.123607,0 -3.263799,1.0546773 -1.12594,1.040426 -1.12594,2.950247 0,1.867065 1.12594,2.921742 1.140192,1.054678 3.192537,1.054678 1.582017,0 2.679452,-0.598601 1.097435,-0.612853 1.525007,-1.824307 z m -6.484843,-2.323141 q 0.185282,-0.598601 0.513087,-0.954911 0.584348,-0.641358 1.681783,-0.641358 1.040425,0 1.639026,0.427572 0.598601,0.427572 0.71262,1.168697 z"
       id="path4774" />
  </g>
  <g
     aria-label="bsmme"
     id="text4841-8"
     style="font-size:14.2524px;font-family:'Xerox Sans Serif Wide';-inkscape-font-specification:'Xerox Sans Serif Wide';fill:#f56c42;stroke-width:3.91941;stroke-linecap:round;stroke-linejoin:round;paint-order:stroke markers fill">
    <path
       d="M 6.4043423,10.26079 V 6.583671 h -1.995336 v 10.233224 h 1.9525788 v -0.940659 q 0.7126201,0.655611 1.4679973,0.897901 0.7696296,0.242291 1.7387928,0.242291 1.7102878,0 2.6794518,-1.140192 0.983415,-1.154444 0.983415,-3.050014 0,-1.696035 -0.969163,-2.73646 -0.969163,-1.0546781 -2.5796846,-1.0546781 -0.9691632,0 -1.8243072,0.2565432 Q 7.0171956,9.5481703 6.4043423,10.26079 Z m -0.085514,2.893238 q 0,-1.197202 0.5986009,-1.795803 0.6128532,-0.598601 1.924074,-0.598601 1.0546776,0 1.6960352,0.598601 0.655611,0.598601 0.655611,1.567764 0,1.140192 -0.612853,1.795803 -0.5986012,0.65561 -1.7530456,0.65561 -1.1259396,0 -1.8243072,-0.584348 -0.6841153,-0.584349 -0.6841153,-1.639026 z"
       id="path3900" />
    <path
       d="m 22.694833,14.493753 q 0,-1.01192 -0.840892,-1.553511 -0.826639,-0.541592 -2.665199,-0.812387 -1.553511,-0.199534 -2.066598,-0.35631 -0.513086,-0.156777 -0.513086,-0.527339 0,-0.35631 0.427572,-0.527339 0.441824,-0.171029 1.36823,-0.171029 1.011921,0 1.525007,0.270796 0.527339,0.270796 0.527339,0.726872 h 1.966831 q -0.185281,-1.467997 -1.42524,-1.9810833 -1.239959,-0.5273388 -2.85048,-0.5273388 -1.539259,0 -2.522675,0.6556104 -0.983415,0.6556107 -0.983415,1.8955697 0,0.969163 0.855144,1.453744 0.869396,0.47033 1.78155,0.641358 1.696035,0.242291 2.551179,0.427572 0.869397,0.185282 0.869397,0.669863 0,0.313553 -0.570096,0.527339 -0.570096,0.199534 -1.339726,0.199534 -1.083182,0 -1.738793,-0.256544 -0.641358,-0.256543 -0.669863,-0.855144 h -2.052345 q 0.156776,1.567765 1.596269,2.109356 1.439492,0.527339 3.09277,0.527339 1.639026,0 2.650947,-0.698368 1.026173,-0.698368 1.026173,-1.83856 z"
       id="path3902" />
    <path
       d="m 37.446064,16.816895 v -5.244884 q 0,-1.168697 -0.798135,-1.8528119 -0.783882,-0.6841152 -2.109355,-0.6841152 -1.026173,0 -1.681783,0.3278052 -0.655611,0.3135528 -1.168697,0.8836489 -0.2993,-0.5700961 -0.826639,-0.8836489 -0.513087,-0.3278052 -1.553512,-0.3278052 -0.869396,0 -1.653278,0.285048 -0.76963,0.285048 -1.325474,1.0404251 V 9.2346175 H 24.41937 v 7.5822775 h 1.995336 v -4.589273 q 0,-0.741125 0.456077,-1.12594 0.456076,-0.384815 1.382482,-0.384815 0.926407,0 1.296969,0.342058 0.370562,0.327805 0.370562,1.054677 v 4.703293 h 2.009589 v -4.503759 q 0,-0.741125 0.441824,-1.168697 0.441825,-0.427572 1.254211,-0.427572 0.969164,0 1.396736,0.342058 0.427572,0.327805 0.427572,1.054677 v 4.703293 z"
       id="path3904"
       style="fill:#ff6f5c;fill-opacity:1" />
    <path
       d="m 52.65337,16.816895 v -5.244884 q 0,-1.168697 -0.798135,-1.8528119 -0.783882,-0.6841152 -2.109355,-0.6841152 -1.026173,0 -1.681783,0.3278052 Q 47.408486,9.6764419 46.8954,10.246538 46.596099,9.6764419 46.068761,9.3628891 45.555674,9.0350839 44.515249,9.0350839 q -0.869396,0 -1.653278,0.285048 -0.76963,0.285048 -1.325474,1.0404251 V 9.2346175 h -1.909821 v 7.5822775 h 1.995336 v -4.589273 q 0,-0.741125 0.456077,-1.12594 0.456076,-0.384815 1.382482,-0.384815 0.926406,0 1.296969,0.342058 0.370562,0.327805 0.370562,1.054677 v 4.703293 h 2.009589 v -4.503759 q 0,-0.741125 0.441824,-1.168697 0.441825,-0.427572 1.254211,-0.427572 0.969164,0 1.396736,0.342058 0.427572,0.327805 0.427572,1.054677 v 4.703293 z"
       id="path3906" />
    <path
       d="M 62.658546,14.59352 H 60.6062 q -0.114019,0.342058 -0.65561,0.584348 -0.527339,0.228039 -1.296969,0.228039 -1.36823,0 -1.966831,-0.584349 -0.41332,-0.413319 -0.555844,-1.254211 h 6.641619 l 0.02851,-0.327805 q 0,-1.924074 -1.140192,-3.064266 -1.12594,-1.1401921 -3.135529,-1.1401921 -2.123607,0 -3.263799,1.0546781 -1.12594,1.040425 -1.12594,2.950246 0,1.867065 1.12594,2.921743 1.140192,1.054677 3.192537,1.054677 1.582017,0 2.679452,-0.598601 1.097435,-0.612853 1.525007,-1.824307 z m -6.484843,-2.323141 q 0.185282,-0.598601 0.513087,-0.954911 0.584348,-0.641358 1.681783,-0.641358 1.040425,0 1.639026,0.427572 0.598601,0.427572 0.71262,1.168697 z"
       id="path3908" />
  </g>
  <path
     style="fill:#ff6f5c;fill-opacity:1;stroke:#ffffff;stroke-width:0.333023;stroke-linecap:round;stroke-linejoin:round;stroke-dasharray:none;stroke-dashoffset:0;stroke-opacity:1;paint-order:stroke markers fill"
     d="M 39.710458,13.018168 V 9.2338167 h 0.908244 0.908244 v 0.566781 0.5667813 l 0.416541,-0.3763196 c 0.658708,-0.5951036 1.201712,-0.7900019 2.338096,-0.8392045 1.196369,-0.0518 1.702835,0.1053874 2.234028,0.6933543 0.197648,0.2187718 0.384166,0.3977678 0.414485,0.3977678 0.03032,0 0.178026,-0.116681 0.328239,-0.2592902 0.5879,-0.5581412 1.206633,-0.7846393 2.270881,-0.8312958 1.182627,-0.051846 1.697836,0.1042737 2.360805,0.7153781 0.683864,0.6303629 0.737689,0.9351989 0.737689,4.1778759 v 2.756874 h -0.958703 -0.958702 v -2.475684 c 0,-2.772087 -0.04863,-3.03322 -0.622775,-3.344105 -0.505445,-0.273685 -1.886142,-0.25945 -2.264925,0.02335 -0.691989,0.516644 -0.691399,0.513987 -0.729084,3.280771 l -0.03427,2.515665 h -0.949666 -0.949666 v -2.532878 c 0,-2.756622 -0.054,-3.073604 -0.563184,-3.305601 -0.402428,-0.183359 -0.999919,-0.24618 -1.612942,-0.169588 -0.449093,0.05611 -0.648547,0.14286 -0.937932,0.407938 l -0.367545,0.336672 -0.03001,2.631728 -0.03001,2.631729 h -0.953923 -0.953924 z"
     id="path6314" />
  <path
     style="fill:#ff6f5c;fill-opacity:1;stroke:#ffffff;stroke-width:0.333023;stroke-linecap:round;stroke-linejoin:round;stroke-dasharray:none;stroke-dashoffset:0;stroke-opacity:1;paint-order:stroke markers fill"
     d="m 57.029439,16.892102 c -0.593312,-0.139287 -1.544878,-0.683355 -1.897408,-1.084864 -0.996587,-1.13505 -1.236133,-3.273968 -0.529387,-4.726922 0.324252,-0.666609 1.099635,-1.3666031 1.839527,-1.660674 0.499624,-0.1985762 0.761414,-0.229118 1.98821,-0.231955 1.250444,-0.00289 1.48006,0.023805 1.997816,0.2322817 0.745923,0.3003485 1.602838,1.1223793 1.941785,1.8627383 0.247171,0.539892 0.484772,1.881272 0.381092,2.151459 -0.0438,0.11415 -0.638545,0.13904 -3.322329,0.13904 -3.222978,0 -3.268974,0.0029 -3.268974,0.205852 0,0.263211 0.325502,0.903422 0.573222,1.127437 0.387712,0.350611 0.967083,0.511968 1.848762,0.514889 0.906462,0.003 1.465864,-0.159472 1.876152,-0.544917 0.188179,-0.176786 0.330525,-0.197365 1.18821,-0.171787 l 0.974419,0.02906 -0.213005,0.403664 c -0.446065,0.845337 -1.237984,1.418435 -2.366021,1.712252 -0.653101,0.170111 -2.365473,0.194242 -3.012071,0.04245 z m 3.671553,-4.745038 c 0,-0.391029 -0.392618,-0.871369 -0.931891,-1.1401 -0.426206,-0.212387 -0.664214,-0.259407 -1.313087,-0.259407 -0.827469,0 -1.218388,0.126379 -1.675339,0.541614 -0.207413,0.188478 -0.620904,0.866791 -0.620904,1.018564 0,0.02996 1.021774,0.05448 2.27061,0.05448 2.250183,0 2.270611,-0.0019 2.270611,-0.215151 z"
     id="path6316" />
  <path
     style="fill:#ff6f5c;fill-opacity:1;stroke:#ffffff;stroke-width:0.333023;stroke-linecap:round;stroke-linejoin:round;stroke-dasharray:none;stroke-dashoffset:0;stroke-opacity:1;paint-order:stroke markers fill"
     d="m 18.003989,17.004733 c -2.019572,-0.247578 -3.1077,-0.843749 -3.467539,-1.899818 -0.08575,-0.251673 -0.155916,-0.494909 -0.155916,-0.540526 0,-0.04562 0.444166,-0.08294 0.987036,-0.08294 h 0.987036 l 0.114941,0.304514 c 0.374257,0.99152 4.099391,1.020459 4.24791,0.033 0.06637,-0.441266 -0.413393,-0.630703 -2.401198,-0.948125 -2.748666,-0.43892 -3.742644,-1.123301 -3.602572,-2.48047 0.09524,-0.922756 0.518664,-1.4766114 1.483336,-1.9402494 0.524075,-0.2518794 0.639483,-0.2667609 2.068778,-0.2667609 1.309659,0 1.602587,0.030726 2.172744,0.2279078 0.932136,0.3223672 1.343592,0.6342105 1.651158,1.2514155 0.431586,0.866079 0.412626,0.892203 -0.647544,0.892203 -0.883778,0 -0.913644,-0.0076 -1.008752,-0.257783 -0.203314,-0.534758 -1.593349,-0.862087 -2.811817,-0.662133 -0.739891,0.121418 -1.04416,0.337982 -1.000451,0.712073 0.04014,0.343579 0.343829,0.473984 1.554816,0.667652 2.489042,0.398061 3.354351,0.660903 3.914282,1.188986 0.47797,0.450784 0.637251,1.032543 0.483697,1.766661 -0.145033,0.693383 -0.340227,0.975172 -0.972659,1.404164 -0.831197,0.563818 -2.192927,0.802387 -3.597286,0.630228 z"
     id="path6318" />
  <path
     style="fill:#ff6f5c;fill-opacity:1;stroke:#ffffff;stroke-width:0.333023;stroke-linecap:round;stroke-linejoin:round;stroke-dasharray:none;stroke-dashoffset:0;stroke-opacity:1;paint-order:stroke markers fill"
     d="M 8.1166106,16.871666 C 7.6921325,16.752333 7.0996058,16.43811 6.5343129,16.032556 6.3080968,15.870263 6.3072519,15.871393 6.3072519,16.336088 v 0.466431 H 5.3990076 4.4907633 V 11.702472 6.602426 l 0.9334733,0.029016 0.9334733,0.029016 0.050458,1.8071178 c 0.044102,1.5794902 0.068512,1.7853202 0.1937868,1.6340692 0.2287982,-0.2762405 0.9694877,-0.6715685 1.5456025,-0.8249341 0.7415876,-0.1974156 2.1504318,-0.1837425 2.8036058,0.02721 0.739444,0.2388138 1.503655,0.9589151 1.859755,1.7524131 0.689111,1.535544 0.300578,3.999616 -0.79905,5.067561 -0.659097,0.640107 -1.166156,0.821952 -2.3743871,0.851515 -0.6374114,0.0156 -1.2434051,-0.02574 -1.5208703,-0.103744 z m 1.8782513,-1.67166 C 11.307916,14.603569 11.66879,12.438866 10.620334,11.448108 10.134711,10.98921 9.6337918,10.819339 8.7778117,10.823276 c -1.3160015,0.0061 -2.0424811,0.436821 -2.3215581,1.376575 -0.4099901,1.380587 0.085746,2.615045 1.2163697,3.028947 0.5859194,0.214496 1.820336,0.199191 2.3222386,-0.02879 z"
     id="path6320" />
  <ellipse
     style="fill:#ffffff;fill-opacity:1;stroke:none;stroke-width:3.3;stroke-linecap:round;stroke-linejoin:round;stroke-dasharray:none;stroke-dashoffset:0;stroke-opacity:1;paint-order:stroke markers fill"
     id="path8742"
     cx="8.6878862"
     cy="13.094269"
     rx="1.659083"
     ry="1.4271681" />
</svg>
