<?xml version="1.0" encoding="UTF-8" standalone="no"?>
<svg
   width="40"
   height="40"
   viewBox="0 0 40 40"
   version="1.1"
   id="svg3451"
   sodipodi:docname="music-small.svg"
   inkscape:version="1.2.2 (732a01da63, 2022-12-09)"
   xmlns:inkscape="http://www.inkscape.org/namespaces/inkscape"
   xmlns:sodipodi="http://sodipodi.sourceforge.net/DTD/sodipodi-0.dtd"
   xmlns:xlink="http://www.w3.org/1999/xlink"
   xmlns="http://www.w3.org/2000/svg"
   xmlns:svg="http://www.w3.org/2000/svg"
   xmlns:rdf="http://www.w3.org/1999/02/22-rdf-syntax-ns#"
   xmlns:cc="http://creativecommons.org/ns#"
   xmlns:dc="http://purl.org/dc/elements/1.1/">
  <sodipodi:namedview
     id="namedview3453"
     pagecolor="#ffffff"
     bordercolor="#000000"
     borderopacity="0.25"
     inkscape:showpageshadow="2"
     inkscape:pageopacity="0.0"
     inkscape:pagecheckerboard="0"
     inkscape:deskcolor="#d1d1d1"
     showgrid="false"
     inkscape:zoom="15.273506"
     inkscape:cx="2.2260769"
     inkscape:cy="15.484329"
     inkscape:window-width="1920"
     inkscape:window-height="1051"
     inkscape:window-x="-9"
     inkscape:window-y="-9"
     inkscape:window-maximized="1"
     inkscape:current-layer="g3449" />
  <title
     id="title3440">music-block-icon</title>
  <defs
     id="defs3443">
    <path
       d="M32.18 25.874C32.636 28.157 30.512 30 27.433 30c-3.07 0-5.923-1.843-6.372-4.126-.458-2.285 1.665-4.136 4.743-4.136.647 0 1.283.084 1.89.234.338.086.637.18.938.302.87-.02-.104-2.294-1.835-12.23-2.134-12.302 3.06-1.87 8.768-2.752 5.708-.885.076 4.82-3.65 3.844-3.724-.987-4.65-7.153.263 14.738zm-16.998 5.99C15.63 34.148 13.507 36 10.44 36c-3.07 0-5.922-1.852-6.38-4.136-.448-2.284 1.674-4.135 4.75-4.135 1.003 0 1.975.196 2.855.543.822-.055-.15-2.377-1.862-12.228-2.133-12.303 3.06-1.87 8.764-2.753 5.706-.894.076 4.82-3.648 3.834-3.724-.987-4.65-7.152.262 14.738z"
       id="a" />
  </defs>
  <g
     fill="none"
     fill-rule="evenodd"
     id="g3449">
    <use
       fill="#ffffff"
       xlink:href="#a"
       id="use3445"
       transform="matrix(0.75737462,0,0,0.75737462,5.0953182,4.8521068)" />
    <path
       stroke-opacity="0.1"
       stroke="#000000"
       d="m 26.64717,21.268202 c -0.0076,-0.236301 -0.06589,-0.624834 -0.193887,-1.289052 -0.07271,-0.3749 -0.463514,-2.288786 -0.570304,-2.825007 -0.299163,-1.499602 -0.575604,-2.968909 -0.864921,-4.629831 -0.554399,-3.1983933 -0.524861,-4.5821167 0.260536,-4.9433844 0.378688,-0.1741962 0.802818,-0.06059 1.39357,0.2650811 0.313553,0.171924 1.652591,1.0338164 1.567765,0.9815575 1.510205,0.9406593 2.623546,1.3435828 3.733857,1.1724159 1.155754,-0.1794978 1.896466,-0.045442 2.17821,0.4680579 0.263566,0.480933 0.01136,1.072442 -0.552884,1.651076 -1.114855,1.14818 -3.010564,1.90404 -4.429127,1.532169 -0.622562,-0.166622 -0.93763,-0.352179 -1.802551,-0.959593 l -0.07195,-0.04999 c 0.0356,0.449123 0.199947,1.317832 0.543038,2.880295 0.222668,1.011853 1.575339,6.958001 1.997197,8.841592 l 0.0015,0.0091 c 0.399894,1.997197 -1.418562,3.577838 -3.965613,3.577838 -2.491763,0 -4.819175,-1.505661 -5.197105,-3.429392 -0.401408,-1.999469 1.418563,-3.585412 3.963342,-3.585412 0.508955,0 1.020183,0.06438 1.525352,0.189344 0.171924,0.04317 0.330215,0.08937 0.48169,0.141629 z m -12.872339,4.536674 c -0.0076,-0.240845 -0.06816,-0.63468 -0.201461,-1.31556 -0.06816,-0.348392 -0.450638,-2.224409 -0.570303,-2.822735 -0.295376,-1.484454 -0.568031,-2.946187 -0.855834,-4.597264 -0.554398,-3.198393 -0.524103,-4.582117 0.260537,-4.942627 0.380202,-0.174196 0.802817,-0.06211 1.393569,0.265081 0.314311,0.171924 1.652592,1.033059 1.567766,0.9808 1.509448,0.94066 2.622031,1.343583 3.730827,1.172416 1.154997,-0.18177 1.896466,-0.04847 2.17821,0.465028 0.263566,0.480933 0.01136,1.071685 -0.551369,1.651077 -1.11637,1.148937 -3.012079,1.903282 -4.428369,1.527625 -0.621048,-0.166623 -0.936115,-0.351422 -1.801037,-0.959594 l -0.07195,-0.04923 c 0.0356,0.449123 0.199947,1.317831 0.543038,2.879538 0.222668,1.01261 1.573824,6.960273 1.996439,8.842349 l 0.0023,0.0098 c 0.391563,1.997955 -1.426893,3.583897 -3.964098,3.583897 -2.489491,0 -4.816903,-1.509447 -5.203164,-3.438481 -0.3938348,-1.999469 1.4268937,-3.582382 3.968643,-3.582382 0.685424,0 1.365546,0.113607 2.007043,0.330216 z"
       id="path3447"
       style="stroke-width:0.757375" />
  </g>
  <metadata
     id="metadata3593">
    <rdf:RDF>
      <cc:Work
         rdf:about="">
        <dc:title>music-block-icon</dc:title>
      </cc:Work>
    </rdf:RDF>
  </metadata>
</svg>
