<?xml version="1.0" encoding="UTF-8" standalone="no"?>
<svg
   width="20px"
   height="20px"
   viewBox="0 0 20 20"
   version="1.1"
   id="svg11074"
   sodipodi:docname="icon--sprite.svg"
   inkscape:version="1.2.2 (732a01da63, 2022-12-09)"
   xmlns:inkscape="http://www.inkscape.org/namespaces/inkscape"
   xmlns:sodipodi="http://sodipodi.sourceforge.net/DTD/sodipodi-0.dtd"
   xmlns="http://www.w3.org/2000/svg"
   xmlns:svg="http://www.w3.org/2000/svg">
  <sodipodi:namedview
     id="namedview11076"
     pagecolor="#ffffff"
     bordercolor="#000000"
     borderopacity="0.25"
     inkscape:showpageshadow="2"
     inkscape:pageopacity="0.0"
     inkscape:pagecheckerboard="0"
     inkscape:deskcolor="#d1d1d1"
     showgrid="false"
     inkscape:zoom="30.547013"
     inkscape:cx="7.5293778"
     inkscape:cy="9.8045593"
     inkscape:window-width="1450"
     inkscape:window-height="1033"
     inkscape:window-x="164"
     inkscape:window-y="0"
     inkscape:window-maximized="0"
     inkscape:current-layer="sprite-library" />
  <!-- Generator: Sketch 48.2 (47327) - http://www.bohemiancoding.com/sketch -->
  <title
     id="title11065">sprite-library</title>
  <desc
     id="desc11067">Created with Sketch.</desc>
  <defs
     id="defs11069" />
  <g
     id="Page-1"
     stroke="none"
     stroke-width="1"
     fill="none"
     fill-rule="evenodd"
     style="display:inline"
     transform="matrix(1.3539094,0,0,1.3539094,-10.783456,-11.786352)">
    <g
       id="sprite-library"
       fill="#ffffff">
      <path
         d="m 16.175926,15.416667 h 2.227204 c 0.414214,0 0.75,0.335786 0.75,0.749999 0,0.414213 -0.335786,0.75 -0.75,0.75 h -2.227204 v 2.227204 c 0,0.414213 -0.335786,0.75 -0.75,0.75 -0.414214,0 -0.75,-0.335787 -0.75,-0.75 v -2.227204 h -2.227204 c -0.414214,0 -0.75,-0.335787 -0.75,-0.75 0,-0.414213 0.335786,-0.749999 0.75,-0.749999 h 2.227204 v -2.227204 c 0,-0.414214 0.335786,-0.75 0.75,-0.75 0.414214,0 0.75,0.335786 0.75,0.75 z"
         id="Combined-Shape"
         sodipodi:nodetypes="cssscssscssscsssc" />
    </g>
  </g>
</svg>
